# xmcd
#
# Track frame offsets: 
#        150
#        19578
#        39627
#
# Disc length: 744 seconds
#
# Revision: 0
# Processed by: cddbd v1.5.2PL0 Copyright (c) Steve Scherf et al.
# Submitted via: ExactAudioCopyFreeDBPlugin 1.0
#
DISCID=1a02e603
DTITLE=Brad Cole - Exile Pt. 1
DYEAR=2010
DGENRE=Pop-Folk
TTITLE0=Waiting for You
TTITLE1=Summer Leaves
TTITLE2=Come Home
EXTD=
EXTT0=
EXTT1=
EXTT2=
PLAYORDER=
